<?xml version="1.0" encoding="UTF-8"?>
<svg version="1.1" xmlns="http://www.w3.org/2000/svg" width="1024" height="1024">
<path d="M0 0 C337.92 0 675.84 0 1024 0 C1024 337.92 1024 675.84 1024 1024 C686.08 1024 348.16 1024 0 1024 C0 686.08 0 348.16 0 0 Z " fill="#00197E" transform="translate(0,0)"/>
<path d="M0 0 C19.4903876 14.92006816 34.11472141 36.23711413 37.39892578 60.91943359 C39.40395978 88.13060929 34.08488159 113.63122138 15.81298828 134.84130859 C15.09755859 135.63923828 14.38212891 136.43716797 13.64501953 137.25927734 C13.10490234 137.88189453 12.56478516 138.50451172 12.00830078 139.14599609 C2.35484146 149.57756801 -10.13109969 156.49112934 -23.35498047 161.25927734 C-25.14742187 161.91089844 -25.14742187 161.91089844 -26.97607422 162.57568359 C-49.75741973 169.4944626 -76.29083475 166.44005012 -97.18457031 155.28222656 C-119.18998471 142.77820428 -135.11894465 122.64733504 -141.90356445 98.24926758 C-143.29764484 92.88775134 -144.23728277 87.79106925 -144.35498047 82.25927734 C-144.39365234 81.12232422 -144.43232422 79.98537109 -144.47216797 78.81396484 C-144.92147635 54.50138917 -137.84866781 31.41121691 -121.35498047 13.25927734 C-120.54416016 12.35564453 -119.73333984 11.45201172 -118.89794922 10.52099609 C-88.213998 -21.95996544 -36.00178032 -26.30454355 0 0 Z " fill="#FBFBFD" transform="translate(221.35498046875,427.74072265625)"/>
<path d="M0 0 C13.71887499 11.6895707 24.24980347 28.4370639 26.8984375 46.49609375 C28.44721132 66.41982615 26.32852351 84.19328285 15.8984375 101.49609375 C14.91979655 102.51700603 13.92359367 103.5218993 12.8984375 104.49609375 C12.52259521 103.83939697 12.14675293 103.1827002 11.75952148 102.50610352 C4.74780878 90.2687304 -2.31083302 78.06997485 -9.6015625 65.99609375 C-14.7633402 57.4471951 -19.81764832 48.84458519 -24.7890625 40.18359375 C-29.43959357 32.08599847 -34.12341934 24.01175773 -38.9140625 15.99609375 C-39.41188232 15.15908936 -39.90970215 14.32208496 -40.42260742 13.4597168 C-40.87998291 12.69828369 -41.3373584 11.93685059 -41.80859375 11.15234375 C-42.2053833 10.49041016 -42.60217285 9.82847656 -43.01098633 9.14648438 C-44.12832157 7.33592884 -44.12832157 7.33592884 -46.1015625 5.49609375 C-50.19402965 4.74199871 -50.19402965 4.74199871 -54.1015625 5.49609375 C-56.81167455 8.04154076 -58.3555119 11.24423538 -60.1015625 14.49609375 C-61.03719477 16.15719466 -61.97298011 17.81821063 -62.91088867 19.47802734 C-63.64282587 20.77824293 -64.37063618 22.08078768 -65.0949707 23.38525391 C-68.84530504 30.12298877 -72.78127351 36.74611923 -76.7265625 43.37109375 C-82.17305042 52.51849092 -87.55002956 61.70103419 -92.8515625 70.93359375 C-97.49308916 79.00270933 -102.15727498 87.05675891 -106.9140625 95.05859375 C-107.41196289 95.90413818 -107.90986328 96.74968262 -108.42285156 97.62084961 C-109.10879395 98.76759155 -109.10879395 98.76759155 -109.80859375 99.9375 C-110.2053833 100.60467041 -110.60217285 101.27184082 -111.01098633 101.95922852 C-112.1015625 103.49609375 -112.1015625 103.49609375 -114.1015625 104.49609375 C-126.0736518 85.96868178 -130.19282898 64.98578279 -126.48828125 43.078125 C-121.29275469 21.72382419 -108.21899908 4.17155318 -89.8515625 -7.75390625 C-60.61150874 -25.0430782 -26.13013229 -21.09498085 0 0 Z " fill="#01197D" transform="translate(218.1015625,442.50390625)"/>
<path d="M0 0 C0.66 0 1.32 0 2 0 C2.32049316 0.57105469 2.64098633 1.14210938 2.97119141 1.73046875 C9.72962091 13.76032982 16.56745415 25.73771994 23.54418945 37.64233398 C28.88705287 46.7723382 34.13136787 55.95701957 39.35253906 65.15698242 C42.18537923 70.13545745 45.02440409 75.09858422 48.046875 79.96484375 C48.48088623 80.66472412 48.91489746 81.36460449 49.36206055 82.08569336 C50.45950633 83.83575892 51.57457042 85.57474443 52.69140625 87.3125 C54 90 54 90 53.91015625 92.171875 C49.55861708 100.9123056 36.87038394 106.45045017 28.04736328 109.72460938 C7.62365777 116.482262 -13.98720784 116.20068608 -33.4375 106.6875 C-39.10690843 103.67805374 -44.2087561 100.27298573 -49 96 C-49.59425781 95.52046875 -50.18851562 95.0409375 -50.80078125 94.546875 C-51.39439453 93.78117188 -51.39439453 93.78117188 -52 93 C-51.27870944 88.71497921 -49.0463608 85.173697 -46.9375 81.4375 C-46.50195801 80.65938965 -46.06641602 79.8812793 -45.61767578 79.07958984 C-41.31670893 71.45387697 -36.83884277 63.93358193 -32.35494995 56.41445923 C-26.29908437 46.25837089 -20.39751435 36.02121215 -14.57958984 25.72705078 C-10.73113615 18.93999823 -6.7403382 12.27638261 -2.58398438 5.67529297 C-0.89534439 3.03806855 -0.89534439 3.03806855 0 0 Z " fill="#01197D" transform="translate(167,466)"/>
<path d="M0 0 C6.6 0 13.2 0 20 0 C26.17560558 11.5338516 32.03884924 23.14475485 37.65039062 34.96240234 C41.53321467 43.10899242 45.63408296 51.10282653 50 59 C56.17759288 46.76219032 62.24240962 34.47950247 68.12939453 22.09912109 C71.65964982 14.68314678 75.29398976 7.32966469 79 0 C85.93 0 92.86 0 100 0 C100 31.02 100 62.04 100 94 C94.06 94 88.12 94 82 94 C81.67 74.53 81.34 55.06 81 35 C72.87652493 50.60981485 64.80478607 66.22857745 57 82 C52.38 82 47.76 82 43 82 C42.02160156 80.10378906 41.04320312 78.20757813 40.03515625 76.25390625 C39.05221079 74.3503966 38.06896493 72.44704239 37.08569336 70.54370117 C36.4193663 69.25349738 35.7533355 67.96314053 35.08764648 66.67260742 C29.79385712 56.41061482 24.40315847 46.205966 19 36 C18.67 55.14 18.34 74.28 18 94 C12.06 94 6.12 94 0 94 C0 62.98 0 31.96 0 0 Z " fill="#FBFBFD" transform="translate(445,451)"/>
<path d="M0 0 C5.94 0 11.88 0 18 0 C21.90817448 3.90817448 23.57766276 6.26395051 26 11 C27.05342112 12.7143127 28.10815595 14.4279778 29.18652344 16.12670898 C29.99242797 17.39698538 30.7897087 18.67276649 31.57910156 19.95336914 C35.96446104 27.06110066 40.60755043 33.99651246 45.25 40.9375 C45.6379071 41.51749756 46.02581421 42.09749512 46.42547607 42.69506836 C48.22362536 45.38244996 50.02356308 48.06861339 51.82519531 50.75366211 C54.55688204 54.8312596 57.27750602 58.91625904 60 63 C60 42.21 60 21.42 60 0 C65.94 0 71.88 0 78 0 C78 31.02 78 62.04 78 94 C59 94 59 94 54.37133789 90.24658203 C52.73365784 87.75320435 52.73365784 87.75320435 51.22265625 85.0078125 C50.63431503 84.07387665 50.04597382 83.1399408 49.43980408 82.17770386 C47.58070325 79.19542046 45.8222652 76.16673101 44.0625 73.125 C42.85987945 71.1536557 41.65093083 69.1861573 40.43554688 67.22265625 C38.15748437 63.53155704 35.92513625 59.81920753 33.72290039 56.08251953 C28.71813211 47.90566878 23.31785364 39.97678046 18 32 C17.67 52.46 17.34 72.92 17 94 C11.39 94 5.78 94 0 94 C0 62.98 0 31.96 0 0 Z " fill="#FDFDFE" transform="translate(665,451)"/>
<path d="M0 0 C6.93 0 13.86 0 21 0 C26.7203675 14.51975159 32.11218675 29.14386499 37.4375 43.8125 C39.05930471 48.27803478 40.68294954 52.74289277 42.30859375 57.20703125 C42.89633072 58.82340988 42.89633072 58.82340988 43.49594116 60.47244263 C46.44499354 68.55456273 49.49061944 76.597059 52.64219666 84.60249329 C52.9537117 85.40486923 53.26522675 86.20724518 53.58618164 87.03393555 C53.99762169 88.08003242 53.99762169 88.08003242 54.41737366 89.14726257 C55 91 55 91 55 94 C48.4 94 41.8 94 35 94 C34.01 91.23625 33.02 88.4725 32 85.625 C31.68675781 84.75568848 31.37351562 83.88637695 31.05078125 82.99072266 C30.80714844 82.3054248 30.56351562 81.62012695 30.3125 80.9140625 C30.06113281 80.2123291 29.80976563 79.5105957 29.55078125 78.78759766 C29 77 29 77 29 75 C16.79 75 4.58 75 -8 75 C-8.99 78.63 -9.98 82.26 -11 86 C-11.99 88.64 -12.98 91.28 -14 94 C-20.6 94 -27.2 94 -34 94 C-31.79997398 86.37032921 -29.22920591 78.94594213 -26.46484375 71.50390625 C-26.02668839 70.31691635 -25.58853302 69.12992645 -25.13710022 67.90696716 C-23.9742747 64.75853316 -22.80884324 61.61109001 -21.64208984 58.46411133 C-20.49159665 55.35905539 -19.34462157 52.25270067 -18.19726562 49.14648438 C-15.46887628 41.7628275 -12.73474109 34.38130616 -10 27 C-9.02870829 24.37747855 -8.05756268 21.754903 -7.08642578 19.13232422 C-4.72473524 12.75471557 -2.36249948 6.37730903 0 0 Z " fill="#FAFBFD" transform="translate(337,451)"/>
<path d="M0 0 C6.93 0 13.86 0 21 0 C21.94617188 2.619375 22.89234375 5.23875 23.8671875 7.9375 C25.20168738 11.62552147 26.53814694 15.31283092 27.875 19 C28.22481934 19.96508484 28.57463867 20.93016968 28.93505859 21.92449951 C33.25074423 33.81979152 37.6160531 45.69490579 42.0703125 57.5390625 C42.48384979 58.63869324 42.89738708 59.73832397 43.32345581 60.87127686 C45.34618323 66.24459942 47.37498911 71.61556728 49.40966797 76.984375 C50.14812623 78.94009878 50.88657096 80.89582768 51.625 82.8515625 C51.96798126 83.75162018 52.31096252 84.65167786 52.66433716 85.57901001 C52.97362152 86.39936737 53.28290588 87.21972473 53.6015625 88.06494141 C53.87307129 88.78050201 54.14458008 89.49606262 54.42431641 90.23330688 C55 92 55 92 55 94 C48.4 94 41.8 94 35 94 C34.01 91.421875 33.02 88.84375 32 86.1875 C31.68675781 85.37949951 31.37351562 84.57149902 31.05078125 83.73901367 C30.80714844 83.09681885 30.56351563 82.45462402 30.3125 81.79296875 C30.06113281 81.1383667 29.80976562 80.48376465 29.55078125 79.80932617 C29 78 29 78 29 75 C16.79 75.33 4.58 75.66 -8 76 C-9.98 81.61 -11.96 87.22 -14 93 C-15 94 -15 94 -16.85766602 94.11352539 C-18.04380493 94.10567017 -18.04380493 94.10567017 -19.25390625 94.09765625 C-20.10791016 94.09443359 -20.96191406 94.09121094 -21.84179688 94.08789062 C-22.73962891 94.07951172 -23.63746094 94.07113281 -24.5625 94.0625 C-25.46419922 94.05798828 -26.36589844 94.05347656 -27.29492188 94.04882812 C-29.53001634 94.03700223 -31.76496493 94.01968245 -34 94 C-32.04664855 87.25996079 -29.87537164 80.63819021 -27.48046875 74.04296875 C-26.97709991 72.64792618 -26.97709991 72.64792618 -26.46356201 71.22470093 C-25.37472569 68.21113721 -24.28141545 65.19922339 -23.1875 62.1875 C-22.62882736 60.64520218 -22.62882736 60.64520218 -22.05886841 59.07174683 C-14.89784581 39.30761566 -7.51262123 19.63282474 0 0 Z " fill="#FBFBFD" transform="translate(595,451)"/>
<path d="M0 0 C1.18190918 0.01305176 1.18190918 0.01305176 2.38769531 0.02636719 C11.95565975 0.26684755 19.8860364 2.30539945 26.9375 9.12890625 C32.48917817 15.0391303 35.125 20.07799411 35.125 28.375 C28.855 28.375 22.585 28.375 16.125 28.375 C15.135 25.735 14.145 23.095 13.125 20.375 C9.42064115 16.67064115 5.32883457 16.21993149 0.25 16.125 C-4.16341381 16.17056622 -7.14314706 16.85599927 -10.875 19.375 C-13.34251239 23.07626859 -13.18221156 24.99723532 -12.875 29.375 C-11.33930827 33.37525557 -9.21352768 34.61633218 -5.33154297 36.41064453 C0.35308942 38.64223844 6.29831724 40.07963807 12.19335938 41.64257812 C21.83430812 44.31078243 30.49941408 47.66917524 36.125 56.375 C39.24873786 62.92201223 39.00391863 70.14769413 37.0625 77.0625 C33.59801436 85.96209613 27.39253638 90.2422911 18.9921875 94.24609375 C9.38270872 98.02966237 -4.31985047 98.05236081 -14.0625 94.75 C-22.43205756 91.03163619 -28.92542901 85.79708169 -32.875 77.375 C-33.58351981 74.27815846 -33.773476 71.5730059 -33.875 68.375 C-27.935 68.375 -21.995 68.375 -15.875 68.375 C-14.885 70.355 -13.895 72.335 -12.875 74.375 C-8.05276026 78.83557176 -4.52685571 79.54238843 1.9375 79.625 C3.74154297 79.66367187 3.74154297 79.66367187 5.58203125 79.703125 C10.26125947 79.26976759 13.61457139 77.83508099 17 74.5625 C18.54042833 71.56722268 18.60070543 69.704938 18.125 66.375 C15.61449791 61.35399582 11.76586436 60.15401061 6.73046875 58.46875 C3.90510377 57.6116512 1.07634203 56.78195416 -1.76171875 55.96875 C-2.633125 55.71601318 -3.50453125 55.46327637 -4.40234375 55.20288086 C-6.13695996 54.70379663 -7.87517654 54.21701178 -9.6171875 53.74438477 C-16.96513263 51.65001854 -23.83050649 48.72540138 -28.3125 42.25 C-28.78558594 41.58742188 -29.25867188 40.92484375 -29.74609375 40.2421875 C-33.28939677 34.38163786 -32.75352995 26.0100399 -31.875 19.375 C-29.60367334 12.5696892 -25.39904667 8.38353115 -19.4140625 4.62890625 C-12.8465726 1.38557662 -7.35446702 -0.13555169 0 0 Z " fill="#FBFCFD" transform="translate(915.875,449.625)"/>
<path d="M0 0 C24.75 0 49.5 0 75 0 C75 5.61 75 11.22 75 17 C65.76 17 56.52 17 47 17 C47 42.41 47 67.82 47 94 C40.73 94 34.46 94 28 94 C28 68.59 28 43.18 28 17 C18.76 17 9.52 17 0 17 C0 11.39 0 5.78 0 0 Z " fill="#FAFBFC" transform="translate(758,451)"/>
<path d="M0 0 C5.94 0 11.88 0 18 0 C18 31.02 18 62.04 18 94 C12.06 94 6.12 94 0 94 C0 62.98 0 31.96 0 0 Z " fill="#FEFEFE" transform="translate(848,451)"/>
<path d="M0 0 C5.94 0 11.88 0 18 0 C18 31.02 18 62.04 18 94 C12.06 94 6.12 94 0 94 C0 62.98 0 31.96 0 0 Z " fill="#FEFEFE" transform="translate(407,451)"/>
<path d="M0 0 C4.36775158 3.14884416 7.96773395 6.77820184 9.6875 11.9375 C10.42174739 18.82257392 9.82811216 23.34207816 5.6875 28.9375 C1.29248432 33.21685738 -3.22699375 34.98339687 -9.3125 35.25 C-14.59213559 35.08909682 -17.9881067 33.04629439 -22 29.6875 C-25.45969092 25.57327296 -27.07164013 21.82997044 -27.75 16.5 C-27.06940511 10.95801308 -25.46151556 7.03747164 -21.4296875 3.09765625 C-14.68026429 -2.04303347 -7.99057074 -2.56301326 0 0 Z " fill="#FBFBFD" transform="translate(176.3125,512.0625)"/>
<path d="M0 0 C2.65027794 2.65027794 3.43056359 5.65015407 4.6015625 9.125 C4.8428891 9.8277002 5.0842157 10.53040039 5.33285522 11.25439453 C5.84155247 12.73960825 6.34739256 14.22580317 6.85058594 15.71289062 C7.62272471 17.9932803 8.40435493 20.27024474 9.1875 22.546875 C9.68025145 23.98939081 10.17245755 25.43209306 10.6640625 26.875 C10.89839996 27.55836426 11.13273743 28.24172852 11.37417603 28.94580078 C13 33.76804968 13 33.76804968 13 36 C4.75 36 -3.5 36 -12 36 C-10.78111167 30.5150025 -9.68239839 25.67701044 -7.87109375 20.46875 C-7.47599609 19.32921875 -7.08089844 18.1896875 -6.67382812 17.015625 C-6.26583984 15.85546875 -5.85785156 14.6953125 -5.4375 13.5 C-5.02564453 12.30890625 -4.61378906 11.1178125 -4.18945312 9.890625 C-1.13650307 1.13650307 -1.13650307 1.13650307 0 0 Z " fill="#02187B" transform="translate(605,473)"/>
<path d="M0 0 C3.16856273 1.58428137 3.52974148 4.8022228 4.6015625 7.9921875 C4.8428891 8.69393097 5.0842157 9.39567444 5.33285522 10.11868286 C5.8423074 11.60541943 6.34811898 13.09340768 6.85058594 14.58251953 C7.62047694 16.86161048 8.40302002 19.13605127 9.1875 21.41015625 C9.68044763 22.85390735 10.17265961 24.29790989 10.6640625 25.7421875 C10.89839996 26.42352753 11.13273743 27.10486755 11.37417603 27.80685425 C12.33529574 30.6717399 13 32.95490905 13 36 C4.75 36 -3.5 36 -12 36 C-8.625 23.625 -8.625 23.625 -6.73828125 18.45703125 C-6.34189453 17.36455078 -5.94550781 16.27207031 -5.53710938 15.14648438 C-5.13298828 14.04626953 -4.72886719 12.94605469 -4.3125 11.8125 C-3.68891602 10.09836914 -3.68891602 10.09836914 -3.05273438 8.34960938 C-2.03907179 5.56495009 -1.02143976 2.78181383 0 0 Z " fill="#03177A" transform="translate(347,473)"/>
<path d="M0 0 C3.12498063 -0.02895976 6.2499269 -0.04678483 9.375 -0.0625 C10.70917969 -0.07506836 10.70917969 -0.07506836 12.0703125 -0.08789062 C13.34648438 -0.09272461 13.34648438 -0.09272461 14.6484375 -0.09765625 C15.43395996 -0.10289307 16.21948242 -0.10812988 17.02880859 -0.11352539 C19 0 19 0 21 1 C21.02312143 13.499571 21.04091406 25.99913695 21.05181217 38.49872494 C21.05704144 44.30213613 21.06413987 50.10553275 21.07543945 55.90893555 C21.08626678 61.50450853 21.0922765 67.10006745 21.09487724 72.6956501 C21.09673177 74.83558944 21.10035291 76.97552796 21.10573006 79.11546135 C21.11293844 82.10164966 21.11399103 85.08777907 21.11352539 88.07397461 C21.11712067 88.96805023 21.12071594 89.86212585 21.12442017 90.78329468 C21.11405216 96.88594784 21.11405216 96.88594784 20 98 C17.00981839 98.12667764 14.05305892 98.18520838 11.0625 98.1875 C9.80663086 98.20586914 9.80663086 98.20586914 8.52539062 98.22460938 C7.72423828 98.22654297 6.92308594 98.22847656 6.09765625 98.23046875 C5.36039307 98.23457764 4.62312988 98.23868652 3.86352539 98.24291992 C2 98 2 98 0 96 C-0.24050903 93.70944214 -0.24050903 93.70944214 -0.22705078 90.81591797 C-0.22689972 89.73494843 -0.22674866 88.65397888 -0.22659302 87.54025269 C-0.21627045 86.36939117 -0.20594788 85.19852966 -0.1953125 83.9921875 C-0.1924826 82.79643097 -0.18965271 81.60067444 -0.18673706 80.36868286 C-0.17551305 76.53735481 -0.15040431 72.70625778 -0.125 68.875 C-0.11497308 66.28255545 -0.10584673 63.69010725 -0.09765625 61.09765625 C-0.07556646 54.73169158 -0.04206706 48.36586229 0 42 C-0.66 41.67 -1.32 41.34 -2 41 C-1.01 39.02 -0.02 37.04 1 35 C1.33 35 1.66 35 2 35 C2 55.13 2 75.26 2 96 C7.94 96 13.88 96 20 96 C20 64.98 20 33.96 20 2 C13.07 2 6.14 2 -1 2 C-0.67 1.34 -0.34 0.68 0 0 Z " fill="#000569" transform="translate(525,449)"/>
<path d="M0 0 C0.33 0 0.66 0 1 0 C1 31.02 1 62.04 1 94 C6.61 94 12.22 94 18 94 C18 73.21 18 52.42 18 31 C21.45397435 34.45397435 22.56375905 35.69127714 24 40 C23.01 39.34 22.02 38.68 21 38 C20.67 56.81 20.34 75.62 20 95 C17.703463 96.1482685 16.41686833 96.11561175 13.8671875 96.09765625 C13.06152344 96.09443359 12.25585938 96.09121094 11.42578125 96.08789062 C10.16314453 96.07532227 10.16314453 96.07532227 8.875 96.0625 C8.02550781 96.05798828 7.17601562 96.05347656 6.30078125 96.04882812 C4.20049091 96.03702874 2.1002367 96.01909306 0 96 C-1.68172203 92.63655595 -1.07660028 88.83908352 -1.02172852 85.14404297 C-1.01212097 84.22691528 -1.00251343 83.3097876 -0.99261475 82.36486816 C-0.95955072 79.32389831 -0.91924661 76.28306883 -0.87890625 73.2421875 C-0.85461237 71.13754781 -0.83076845 69.03290288 -0.80735779 66.92825317 C-0.74444403 61.38138881 -0.67539807 55.83461687 -0.60510254 50.2878418 C-0.53448487 44.63073953 -0.46962864 38.97357159 -0.40429688 33.31640625 C-0.27519057 22.21086533 -0.1396101 11.10541349 0 0 Z " fill="#374596" transform="translate(664,451)"/>
<path d="M0 0 C0.33 0 0.66 0 1 0 C2.3580755 10.52929561 2.11201847 21.09521987 2.0625 31.6875 C2.05747491 33.56445193 2.05291379 35.44140516 2.04882812 37.31835938 C2.03790258 41.87893887 2.02069357 46.43945479 2 51 C-0.05677635 49.33273948 -0.92877399 48.48168717 -1.32279968 45.81697083 C-1.29837296 44.97091782 -1.27394623 44.12486481 -1.2487793 43.25317383 C-1.22853195 42.29240433 -1.20828461 41.33163483 -1.18742371 40.3417511 C-1.15006607 39.30729355 -1.11270844 38.272836 -1.07421875 37.20703125 C-1.03455742 35.61528328 -1.03455742 35.61528328 -0.99409485 33.99137878 C-0.90623612 30.59785306 -0.79711816 27.20538586 -0.6875 23.8125 C-0.62425133 21.51370996 -0.56238495 19.21488144 -0.50195312 16.91601562 C-0.35067993 11.27679899 -0.18194244 5.63830592 0 0 Z " fill="#1F2A80" transform="translate(724,464)"/>
<path d="M0 0 C-0.33 0.66 -0.66 1.32 -1 2 C-1.88042969 1.95359375 -2.76085937 1.9071875 -3.66796875 1.859375 C-5.41013672 1.80523437 -5.41013672 1.80523437 -7.1875 1.75 C-8.33605469 1.70359375 -9.48460937 1.6571875 -10.66796875 1.609375 C-15.51492345 2.17759947 -17.6660836 4.6660836 -21 8 C-20.9375 5.75 -20.9375 5.75 -20 3 C-13.96221724 -1.75314813 -7.28425416 -2.42808472 0 0 Z " fill="#091272" transform="translate(924,466)"/>
<path d="M0 0 C2.76223278 2.76223278 2.57856291 5.20706617 3 9 C1.35 9.33 -0.3 9.66 -2 10 C-1.85950482 8.52031676 -1.71245174 7.04125484 -1.5625 5.5625 C-1.48128906 4.73878906 -1.40007813 3.91507812 -1.31640625 3.06640625 C-1 1 -1 1 0 0 Z " fill="#0D1A76" transform="translate(605,473)"/>
<path d="M0 0 C0.99 0 1.98 0 3 0 C3 3.3 3 6.6 3 10 C3.66 10.33 4.32 10.66 5 11 C4.01 11 3.02 11 2 11 C-0.32590854 7.36576791 -0.16265833 4.22911669 0 0 Z " fill="#0F207E" transform="translate(902,472)"/>
<path d="M0 0 C0.33 0 0.66 0 1 0 C1 3.63 1 7.26 1 11 C-0.32 11 -1.64 11 -3 11 C-2.01 7.37 -1.02 3.74 0 0 Z " fill="#15207C" transform="translate(596,497)"/>
<path d="M0 0 C1.32 0.33 2.64 0.66 4 1 C4 2.65 4 4.3 4 6 C3.01 6.495 3.01 6.495 2 7 C0.5393715 4.35261084 0 3.10551666 0 0 Z " fill="#081371" transform="translate(492,504)"/>
</svg>
